<?xml version="1.0" encoding="UTF-8" standalone="no"?>
<svg
   version="1.1"
   style="display:block"
   viewBox="0 0 128 128"
   width="64"
   height="64"
   preserveAspectRatio="none"
   id="svg9"
   sodipodi:docname="icon64.svg"
   inkscape:version="1.4.3 (0d15f75042, 2025-12-25)"
   xmlns:inkscape="http://www.inkscape.org/namespaces/inkscape"
   xmlns:sodipodi="http://sodipodi.sourceforge.net/DTD/sodipodi-0.dtd"
   xmlns="http://www.w3.org/2000/svg"
   xmlns:svg="http://www.w3.org/2000/svg">
  <defs
     id="defs9" />
  <sodipodi:namedview
     id="namedview9"
     pagecolor="#ffffff"
     bordercolor="#000000"
     borderopacity="0.25"
     inkscape:showpageshadow="2"
     inkscape:pageopacity="0.0"
     inkscape:pagecheckerboard="0"
     inkscape:deskcolor="#d1d1d1"
     inkscape:zoom="6.25"
     inkscape:cx="-20.8"
     inkscape:cy="38.56"
     inkscape:window-width="1920"
     inkscape:window-height="1011"
     inkscape:window-x="0"
     inkscape:window-y="0"
     inkscape:window-maximized="1"
     inkscape:current-layer="svg9" />
  <path
     fill="rgb(208,214,222)"
     d="M 0,0 H 128 V 128 H 0 Z"
     id="path1"
     style="fill:none;stroke-width:0.0625" />
  <path
     fill="#fefefd"
     d="M 14.423278,98.573016 C 14.150194,98.14161 12.997322,97.121642 12.583353,96.651716 9.14363,92.755198 6.7494878,87.515928 6.2215504,82.326728 5.8918324,79.085786 6.0289616,75.29019 6.0247974,71.986846 l 0.01336,-17.886398 C 6.0012554,48.502104 5.9984314,42.903524 6.0298574,37.30511 6.0251374,34.991922 6.0032294,32.67943 6.0044614,30.365564 6.0099414,19.920211 12.395071,10.746076 21.81062,6.3844702 c 2.74185,-1.2543138 5.677872,-2.0309988 8.681284,-2.2965464 1.288826,-0.11961 2.66095,-0.082948 3.96172,-0.081584 l 5.94114,0.01014 19.163138,0.00169 21.00323,-0.00412 6.95874,0.00214 c 4.36798,0.00714 7.570406,0.112104 11.75273,1.6663866 5.256218,1.954037 9.772888,5.4969456 12.922918,10.1363436 0.97991,1.46579 1.69327,2.925236 2.46518,4.501199 0.59858,1.22402 0.82969,2.752804 1.38744,3.897826 l 0.10586,-0.0132 0.01,0.07196 c 0.0539,0.31307 0.071,0.282112 0.14818,0.53656 0.3428,1.130674 0.3297,2.479048 0.53463,3.648082 0.0332,0.1903 0.23959,0.344816 0.36901,0.463222 0.71952,0.65643 0.94062,1.82916 1.66553,2.625874 0.50613,0.5559 0.91289,1.919292 1.23643,2.61039 0.3744,0.76128 0.88902,1.480034 1.11781,2.307174 0.157,0.568302 0.18022,1.309706 0.33665,1.872312 0.51075,1.835934 0.30276,3.58921 0.40213,5.4844 0.18636,3.575812 0.41292,7.219422 0.006,10.787224 -0.13378,1.16688 0.11268,2.47836 0.0471,3.653784 -0.14204,2.556386 0.0126,5.122716 0.25114,7.66877 0.0765,0.825066 -0.1618,1.890492 -0.12696,2.734816 -0.0546,1.875846 0.0569,3.854146 0.0314,5.70073 -0.0369,1.908198 -0.12082,3.81563 -0.25191,5.719974 -0.0403,0.518452 -0.31432,1.155554 -0.2858,1.600056 0.14952,2.362718 0.59625,5.136814 0.14272,7.459474 -0.1263,0.644796 0.0348,1.644734 -0.0772,2.277202 -0.18984,1.07929 -0.47224,2.086928 -0.83662,3.11614 -0.1948,0.550044 -0.30276,1.62394 -0.47147,2.160886 -0.35205,0.99531 -0.7565,2.130836 -1.30423,3.029852 -0.28581,0.468393 -0.78501,0.970673 -1.04231,1.412863 -1.69019,2.8989 -3.53522,5.77314 -6.54196,7.46025 -0.39136,0.31045 -0.74264,0.69255 -1.13167,1.00532 -1.74488,1.40131 -3.76249,2.38198 -5.79317,3.29179 -0.5824,0.26038 -1.97907,1.20793 -2.51988,1.30038 -1.60236,0.27425 -3.17006,0.65713 -4.764716,0.97836 -0.866672,0.1809 -1.674008,0.60782 -2.54838,0.7565 -1.390518,0.2096 -2.856526,-0.0746 -4.230092,-0.10586 -0.809658,-0.016 -1.812678,0.1399 -2.663164,0.1399 -0.84432,7.7e-4 -1.670922,-0.1024 -2.496768,-0.1072 l -7.707522,-0.0287 c -0.915966,-0.009 -1.40285,0.15498 -2.168588,0.16661 l -9.435476,0.20002 c -1.969044,0.0485 -3.707764,-0.0507 -5.661422,-0.19665 -0.348982,-0.0259 -0.69025,0.17955 -1.060192,0.18984 l -6.513558,0.17406 c 0.16232,-0.005 -2.687674,0.6448 -2.64661,0.62939 -2.089696,0.77729 -4.192962,1.73179 -6.053398,2.97131 -1.405688,0.93676 -2.44361,2.05149 -4.084798,2.57919 -1.03545,0.33356 -2.065974,0.87514 -3.155968,1.08391 -0.751954,0.16248 -0.693176,-0.0765 -1.416012,0.36516 -0.23477,-0.0894 -0.270788,-0.19318 -0.551888,-0.29043 -2.004424,-0.69026 -1.679866,-4.48663 -2.979632,-5.58979 -0.19372,-0.0362 -0.664598,0.27502 -0.912804,0.39366 -0.644342,0.30506 -1.322726,0.53155 -2.020906,0.67561 -0.718294,-0.34667 -1.120044,-0.66945 -1.582728,-1.33891 -0.1427,0.003 -1.538576,0.34975 -2.071212,0.4006 -0.0156,-0.009 -0.03598,-0.018 -0.05392,-0.0307 l -0.08904,-0.0538 c -0.42932,-0.25583 -0.461518,-0.29435 -0.816276,-0.65488 -0.08838,-1.60775 0.449052,-2.34268 0.677926,-3.76402 -0.205258,-0.57161 0.861966,-2.36348 0.541332,-2.67702 -1.193776,-1.16644 -3.37292,-2.62704 -4.513602,-3.78568 -1.168367,-1.18718 -2.374853,-3.04839 -3.233723,-4.45816 -0.456752,-0.75034 -0.901334,-1.24723 -1.1249,-2.05072 -0.07658,-0.27502 -2.107341,-1.519939 -2.309709,-2.201715 z"
     id="path2"
     style="stroke-width:0.077038" />
  <path
     fill="#899ab8"
     d="m 116.04798,24.217956 0.10586,-0.0132 0.01,0.07196 c 0.0539,0.313072 0.071,0.28211 0.14818,0.536562 0.34281,1.130674 0.3297,2.479046 0.53464,3.64808 0.0331,0.1903 0.23959,0.344816 0.369,0.463224 0.71952,0.65643 0.94061,1.829162 1.66553,2.625874 0.50614,0.555898 0.91289,1.91929 1.23644,2.61039 0.3744,0.76128 0.88901,1.480032 1.11781,2.307174 0.157,0.5683 0.18022,1.309702 0.33665,1.872306 0.51074,1.835936 0.30275,3.589214 0.40212,5.484404 0.18636,3.57581 0.41292,7.219418 0.006,10.787226 -0.13378,1.166876 0.11268,2.47836 0.0471,3.653782 -0.14204,2.556386 0.0126,5.122712 0.25114,7.668772 0.0765,0.825066 -0.1618,1.890488 -0.12696,2.734816 -0.0546,1.87584 0.0569,3.854146 0.0314,5.700726 -0.0369,1.9082 -0.12082,3.815632 -0.25192,5.719976 -0.0403,0.518452 -0.31432,1.155556 -0.28579,1.600056 0.14952,2.36272 0.59625,5.13681 0.1427,7.459474 -0.1263,0.644796 0.0348,1.644736 -0.0772,2.277204 -0.18984,1.079284 -0.47224,2.086924 -0.83664,3.116136 -0.1947,0.550048 -0.30275,1.623942 -0.47145,2.160886 -0.35207,0.99531 -0.75652,2.13084 -1.30424,3.029856 -0.2858,0.46839 -0.78501,0.97067 -1.04231,1.41286 -1.69019,2.89889 -3.53522,5.77313 -6.54197,7.46024 -0.39134,0.31045 -0.74262,0.69256 -1.13166,1.00533 -1.74489,1.4013 -3.76248,2.38197 -5.79316,3.29178 -0.58242,0.26039 -1.97909,1.20793 -2.51989,1.30038 -1.60236,0.27426 -3.170066,0.65713 -4.76472,0.97837 -0.866674,0.1809 -1.674,0.60782 -2.548378,0.7565 -1.390518,0.2096 -2.856522,-0.0745 -4.230086,-0.10586 -0.809658,-0.016 -1.812678,0.1399 -2.663166,0.1399 -0.844322,7.6e-4 -1.67092,-0.1024 -2.496764,-0.1072 l -7.707472,-0.0287 c -0.915962,-0.009 -1.402848,0.155 -2.168586,0.16662 l -9.435474,0.2 c -1.969046,0.0485 -3.707768,-0.0509 -5.661422,-0.19666 -0.348988,-0.0259 -0.69025,0.17956 -1.060192,0.18982 l -6.513608,0.17408 c 0.16234,-0.005 -2.68766,0.6448 -2.646598,0.62939 -2.089698,0.7773 -4.192964,1.73178 -6.053396,2.97131 -1.40569,0.93677 -2.443614,2.05149 -4.084804,2.57919 -1.035446,0.33356 -2.06597,0.87514 -3.155962,1.08391 -0.751962,0.16248 -0.693184,-0.0765 -1.416018,0.36515 -0.234766,-0.0894 -0.270784,-0.19318 -0.55189,-0.29043 -2.00442,-0.69024 -1.679864,-4.48662 -2.979628,-5.58979 -0.19372,-0.0362 -0.6646,0.27502 -0.912808,0.39366 -0.644338,0.30507 -1.322722,0.53156 -2.020904,0.67561 -0.718296,-0.34666 -1.120046,-0.66944 -1.582726,-1.3389 2.036082,-0.38749 11.949878,-7.10818 14.123548,-8.69591 1.06534,-0.7773 3.502092,-2.66393 4.716268,-3.17699 0.15622,-0.0662 2.663078,-0.0478 2.96468,-0.0471 l 6.456674,0.0106 22.411934,-0.005 8.060368,0.004 c 3.858004,-0.004 6.11903,0.16928 9.931582,-0.73031 6.629018,-1.56462 13.005358,-6.066652 16.579078,-11.86675 1.97062,-3.167754 3.27022,-6.706824 3.81873,-10.396886 0.4445,-3.096874 0.33048,-6.967212 0.33279,-10.162694 l -0.005,-14.570744 0.009,-18.449386 0.008,-5.849866 c 0.0114,-3.613408 0.073,-6.112636 -0.77808,-9.695462 z"
     id="path3"
     style="stroke-width:0.077038" />
  <path
     fill="#899ab8"
     d="m 14.423278,98.573016 c 0.693778,0.618604 1.330556,1.18637 2.060025,1.762604 0.403626,0.31816 1.022238,0.71335 1.382436,1.01919 3.008917,1.90359 6.112087,3.35342 9.641453,4.01671 -0.1869,0.74263 -0.365052,1.46138 -0.5883,2.19554 -0.54136,2.03147 -1.226148,4.16615 -1.85483,6.17912 -0.205258,-0.57161 0.86196,-2.36348 0.541352,-2.67703 -1.193926,-1.16633 -3.37309,-2.62695 -4.51377,-3.78558 -1.168405,-1.18714 -2.374897,-3.04835 -3.233757,-4.45812 -0.456736,-0.75034 -0.901322,-1.24723 -1.124912,-2.05073 -0.07658,-0.27502 -2.107339,-1.519932 -2.309697,-2.201704 z"
     id="path4"
     style="stroke-width:0.077038" />
  <path
     fill="#6f86a2"
     d="m 16.858937,100.84945 c 0.41962,0.1761 0.593828,0.5177 1.006802,0.50536 3.008917,1.90358 6.112087,3.35341 9.641453,4.01671 -0.1869,0.74263 -0.365052,1.46138 -0.5883,2.19554 -2.4618,-0.76035 -5.849264,-2.20093 -7.714617,-3.98203 -0.749144,-0.7149 -1.648216,-1.90897 -2.345338,-2.73558 z"
     id="path5"
     style="stroke-width:0.077038" />
  <path
     fill="#27395e"
     d="m 72.90429,30.551538 c 0.82276,-1.314094 1.57464,-2.801312 2.405866,-4.134804 2.183992,-3.481848 4.40959,-6.902805 7.232984,-9.893445 5.496576,-5.841035 9.250582,-3.944664 12.078598,2.907608 3.750154,8.964689 5.267782,18.966607 4.86873,28.650427 -0.08944,2.156732 0.12344,1.727248 0.981442,3.58599 2.33807,5.064862 3.32953,10.578994 4.79786,15.927664 0.35822,1.278042 0.73647,2.551456 1.13398,3.817944 0.67946,2.168588 2.97285,7.01343 -1.28806,6.670622 -1.15632,3.344934 -3.02678,6.519616 -5.05978,9.39848 -0.603194,0.824304 -1.157854,1.690954 -2.02452,2.24948 -1.325804,0.853568 -3.135396,-0.699502 -2.630042,-2.05381 0.399824,-1.071574 1.34121,-2.348074 1.907434,-3.360338 1.484498,-2.655454 3.005198,-5.345588 3.992818,-8.230616 0.48919,-1.418244 -0.22049,-2.657762 -0.67947,-3.97355 C 100.2385,71.015414 99.836352,69.940748 99.51974,68.819862 99.242406,67.83842 98.978168,66.85312 98.726258,65.86551 98.523462,65.042752 98.17005,63.21159 97.774088,62.543682 96.55767,60.7511 93.255878,60.483946 91.35615,60.23257 c -2.28414,-0.302296 -3.606092,0.521534 -4.944218,-1.709444 -0.04846,-1.5603 0.23271,-2.618096 -1.330426,-3.668414 -1.328114,-0.892858 -2.753298,-1.77562 -4.130722,-2.58805 -2.117732,-1.248536 -4.500484,-3.242868 -6.84856,-3.951378 -1.428272,-0.442418 -2.974392,-0.290968 -4.290182,0.420242 -3.228616,1.741178 -3.538302,5.773446 -3.389616,9.005748 0.08712,1.890026 0.825828,3.77142 2.840338,4.310132 1.757214,0.469928 2.093864,-1.258614 2.761766,-2.399458 0.676386,-1.14954 1.82115,-2.094088 3.147732,-2.355628 5.862498,-1.27073 8.805306,6.385188 3.683896,9.42506 -1.61547,0.922132 -3.700846,0.887462 -5.280102,-0.08082 -0.84432,-0.51846 -1.260324,-1.056942 -1.872762,-1.820376 -2.115436,0.593952 -3.05605,0.661746 -4.918036,-0.699486 -0.847404,-0.63325 -2.97053,-1.617016 -3.160046,-2.740356 -0.283496,-1.672862 -0.35437,-3.787592 -0.449124,-5.490728 -0.213644,-3.707852 -0.398272,-7.417254 -0.554668,-11.12796 -0.04032,-0.912192 0.06554,-3.8651 -0.669448,-4.55665 -0.558508,-0.525322 -1.229506,-0.03982 -1.637802,0.51707 -0.202796,1.563696 -0.261924,4.15229 -0.338192,5.768824 -0.13858,3.45264 -0.315084,6.90365 -0.529324,10.352518 -0.05854,0.965344 -0.16274,3.946044 -0.496884,4.82457 -0.36684,0.965124 -4.176704,3.237706 -5.202984,3.750772 -0.714208,0.356682 -2.159964,-0.19864 -2.905138,-0.528472 -0.636246,0.863586 -1.219648,1.503758 -2.208558,1.970602 -1.301618,0.626308 -2.802216,0.694872 -4.15545,0.18986 -1.190902,-0.446824 -2.288694,-1.484502 -2.819238,-2.65238 -0.586792,-1.281124 -0.626776,-2.745122 -0.11046,-4.055842 0.490802,-1.24098 1.45676,-2.234674 2.683422,-2.760222 0.880368,-0.367922 1.843174,-0.493494 2.788492,-0.363542 3.856078,0.533184 4.007758,4.40028 5.127878,4.807644 0.60898,0.221872 1.355236,0.07918 1.91868,-0.205192 0.922666,-0.466062 1.656754,-1.447522 1.95427,-2.424654 0.688008,-2.25972 0.226114,-6.442354 -0.91713,-8.48267 -0.75935,-1.338298 -2.030224,-2.310348 -3.520582,-2.692904 -1.874076,-0.500892 -3.757092,0.17996 -5.370312,1.111716 -1.99788,1.154016 -3.9295,2.491826 -5.863732,3.75093 -0.973128,0.63346 -2.048796,1.202384 -2.958996,1.91944 -0.365306,0.287806 -0.740076,0.632166 -0.958014,1.047168 -0.424488,0.808028 -0.0142,1.69903 -0.258534,2.532814 -0.18044,0.621146 -0.709976,1.111406 -1.312246,1.323572 -0.850038,0.299448 -1.840494,0.224986 -2.731194,0.268162 -1.977692,0.09594 -4.371228,0.417002 -6.12595,1.399216 -0.57901,0.3241 -0.98831,0.701422 -1.265344,1.31463 -0.520298,1.152472 -0.806284,3.38577 -1.215096,4.764726 -0.40007,1.348914 -0.82062,2.700914 -1.292242,4.026712 -0.307904,0.865132 -0.700172,1.735646 -0.93614,2.621566 -0.10232,0.384418 -0.1319,0.731072 -0.06856,1.125514 0.16106,1.00687 0.646264,2.00141 1.066644,2.92431 1.359326,2.982862 2.971848,5.613674 4.573764,8.445544 0.323936,0.572384 0.58831,1.144772 0.386256,1.806512 -0.1518,0.497656 -0.562668,0.952176 -1.028894,1.17866 -0.426958,0.207418 -0.906032,0.204808 -1.341606,0.02522 -1.873538,-0.77268 -4.990675,-6.622854 -5.902797,-8.51026 -0.513512,-1.063104 -0.947396,-2.16781 -1.395136,-3.259424 -4.162451,0.17276 -2.226131,-3.864162 -1.478565,-6.216864 0.517839,-1.627792 1.009509,-3.263286 1.474719,-4.906476 1.070502,-3.852614 1.835242,-7.755368 3.142339,-11.56115 0.740474,-2.156028 1.561444,-3.869784 2.591732,-5.900244 -0.1743,-1.260164 -0.1706,-3.31513 -0.16856,-4.584996 -0.0128,-7.705678 1.280046,-15.357758 3.82958,-22.629418 1.120728,-3.141465 3.00999,-8.32451 6.59335,-9.113737 0.719528,-0.05373 1.38782,-0.06101 2.089392,0.136374 4.998686,1.405384 11.573858,12.829549 14.124308,17.298145 7.223592,-1.412236 15.91026,-1.548748 23.121666,-0.0062 z"
     id="path6"
     style="stroke-width:0.077038" />
  <path
     fill="#fefefd"
     d="m 88.1961,17.516653 c 1.705598,-0.03524 2.928936,3.053691 3.474354,4.384255 1.062342,2.653444 1.903584,5.390112 2.515254,8.182012 0.840476,3.672036 2.309566,13.333054 0.868208,16.787086 -1.074666,-1.444984 -3.748608,-4.183874 -5.069026,-5.35615 -4.246262,-3.754536 -7.781484,-5.965326 -12.818148,-8.382458 1.413626,-3.31325 3.682362,-7.152148 5.66451,-10.19396 0.978372,-1.502 2.944346,-4.270077 4.482778,-5.157539 0.231998,-0.13364 0.610894,-0.210072 0.88207,-0.263246 z"
     id="path7"
     style="stroke-width:0.077038" />
  <path
     fill="#fefefd"
     d="m 34.536574,17.524905 c 0.19786,0.0156 0.407598,0.04012 0.593822,0.11194 3.131538,1.207488 8.908218,12.286065 10.41143,15.471689 -4.544708,1.936786 -9.066542,5.127116 -12.791356,8.351554 -2.1021,1.994258 -3.34246,3.249962 -5.216778,5.452514 -0.13108,-0.453278 -0.345946,-1.476948 -0.377146,-1.949872 -0.466154,-7.821326 1.133584,-16.102538 4.030696,-23.36186 0.62107,-1.556242 1.522862,-3.878909 3.349332,-4.075655 z"
     id="path8"
     style="stroke-width:0.077038" />
  <path
     fill="#27395e"
     d="m 60.896568,75.233952 c 2.705534,-0.0148 6.53041,0.217786 7.868544,3.039102 0.509208,1.08005 0.552352,2.321878 0.12016,3.435068 -1.00995,2.665472 -3.562952,4.706948 -6.110548,5.83785 0.14204,1.71098 0.922902,2.796426 2.368102,3.606858 4.034422,2.26334 9.014076,-0.14722 10.443106,-4.380312 0.25577,-0.756494 0.398278,-2.003724 1.267254,-2.08615 0.44605,-0.04098 0.889778,0.10306 1.22643,0.399046 1.293452,1.142456 -0.41292,4.289412 -1.17866,5.377942 -3.492086,4.964244 -10.525542,6.202228 -15.113844,1.905888 -0.411386,-0.426012 -0.374396,-0.455294 -0.89286,0.03004 -1.873624,1.752592 -4.481696,2.727874 -7.072368,2.583048 -2.769168,-0.16728 -5.361062,-1.418258 -7.214418,-3.48284 -1.363548,-1.543048 -2.530744,-3.678508 -2.400848,-5.793934 0.334726,-0.579322 0.935528,-1.137064 1.656976,-0.971434 1.033294,0.237274 1.069192,1.687092 1.401456,2.516792 0.920284,2.29646 3.153274,4.142262 5.56976,4.62528 1.77739,0.369008 3.628278,0.0072 5.13774,-0.999928 1.354386,-0.912888 1.69296,-1.762612 1.984156,-3.277918 -1.185286,-0.584706 -2.426806,-1.208704 -3.414192,-2.098482 -1.358772,-1.224116 -2.936794,-3.276374 -3.02107,-5.172254 -0.04872,-1.133978 0.358672,-2.240232 1.131438,-3.072222 1.581174,-1.73487 4.05629,-1.935944 6.24369,-2.021446 z"
     id="path9"
     style="stroke-width:0.077038" />
</svg>
